<?xml version="1.0" standalone="no"?>
<!DOCTYPE svg PUBLIC "-//W3C//DTD SVG 20010904//EN"
 "http://www.w3.org/TR/2001/REC-SVG-20010904/DTD/svg10.dtd">
<svg version="1.0" xmlns="http://www.w3.org/2000/svg"
 width="2000.000000pt" height="2000.000000pt" viewBox="0 0 2000.000000 2000.000000"
 preserveAspectRatio="xMidYMid meet">

<g transform="translate(0.000000,2000.000000) scale(0.100000,-0.100000)"
fill="#000000" stroke="none">
<path d="M14472 12822 c-16 -16 -17 -55 -16 -597 1 -549 2 -580 19 -583 10 -2
21 2 26 10 13 19 11 1188 -1 1188 -5 0 -18 -8 -28 -18z"/>
<path d="M1060 12105 c0 -168 2 -305 4 -305 3 0 40 13 83 29 142 52 438 111
557 111 l46 0 0 -1591 0 -1590 23 3 22 3 0 1620 0 1620 -70 -3 c-116 -6 -332
-50 -474 -97 -73 -25 -137 -42 -142 -39 -5 3 -9 126 -9 275 0 262 0 269 -20
269 -20 0 -20 -7 -20 -305z"/>
<path d="M7365 12065 c-62 -14 -103 -35 -135 -69 l-24 -27 39 17 c90 37 209
14 273 -54 63 -68 87 -211 59 -354 -8 -43 -12 -78 -8 -79 3 0 15 -3 26 -5 42
-9 272 -5 320 6 109 24 245 92 245 122 0 7 -4 7 -12 0 -18 -14 -103 -42 -178
-58 -68 -15 -247 -18 -315 -6 -46 9 -45 5 -26 144 21 148 -16 283 -93 333 -47
31 -116 43 -171 30z"/>
<path d="M2635 12050 c-99 -5 -100 -5 -103 -31 l-3 -26 223 -7 c123 -3 284
-15 358 -25 74 -10 135 -18 136 -17 7 8 11 54 6 63 -16 26 -408 53 -617 43z"/>
<path d="M6496 11908 c-81 -174 -146 -405 -181 -648 -8 -59 -25 -253 -25 -292
0 -35 2 -37 23 -29 21 8 22 15 29 157 8 179 37 373 83 549 34 130 82 271 111
326 8 16 12 29 9 29 -4 0 -26 -42 -49 -92z"/>
<path d="M13390 11690 l-35 -29 46 -1 c89 0 139 -37 139 -102 0 -21 2 -20 21
9 11 17 23 47 26 67 4 28 1 39 -20 60 -22 22 -35 26 -84 26 -51 0 -64 -4 -93
-30z"/>
<path d="M12803 11573 c-12 -21 -26 -63 -33 -94 -30 -137 61 -286 225 -369 58
-29 66 -31 187 -31 191 0 289 21 451 94 l69 31 28 -31 c51 -54 124 -67 290
-50 41 4 89 10 105 12 17 2 57 7 90 10 88 8 167 16 192 20 25 4 37 -9 37 -40
-1 -83 -16 -540 -19 -580 -2 -27 -6 -117 -10 -200 -7 -158 -23 -396 -29 -430
-2 -11 -7 -45 -11 -75 -4 -30 -9 -66 -11 -80 -4 -26 -29 -297 -39 -430 -7 -99
-16 -197 -20 -240 -10 -82 -20 -282 -19 -370 1 -75 6 -106 24 -147 39 -91 125
-154 245 -181 190 -43 557 11 624 92 17 20 9 20 -54 0 -77 -23 -231 -44 -330
-44 -176 0 -286 33 -364 109 -93 91 -106 162 -86 470 8 119 17 241 20 271 3
30 10 107 15 170 16 175 39 406 50 490 15 117 28 292 35 440 3 74 7 178 10
230 3 52 7 199 10 325 3 127 8 242 11 258 7 33 6 33 -156 13 -386 -49 -475
-46 -545 16 l-36 31 -77 -36 c-133 -61 -234 -81 -412 -81 l-155 -1 -68 35
c-79 41 -168 125 -200 190 -18 37 -22 62 -22 143 0 53 0 97 -1 97 0 0 -10 -17
-21 -37z"/>
<path d="M15187 11264 c-4 -4 -7 -20 -7 -36 l0 -28 283 -1 c155 0 320 -2 367
-4 47 -2 157 -6 245 -9 310 -11 451 -17 508 -21 41 -3 70 1 95 12 21 9 42 17
49 18 6 2 19 7 28 12 22 12 -49 19 -350 33 -550 25 -1204 38 -1218 24z"/>
<path d="M17466 11015 c-10 -19 -15 -39 -12 -44 3 -4 34 -11 68 -15 71 -7 254
-53 339 -85 132 -50 334 -168 411 -242 l39 -37 19 39 c11 21 20 45 20 53 0 39
-228 192 -381 254 -110 45 -241 81 -354 97 -134 19 -130 20 -149 -20z"/>
<path d="M17095 11014 c-327 -79 -422 -120 -587 -252 -38 -30 -68 -56 -68 -59
0 -3 21 8 48 23 101 59 210 114 286 144 160 63 449 116 472 86 6 -8 23 -59 39
-113 15 -54 31 -102 36 -106 8 -10 39 89 39 127 0 14 -14 57 -31 96 l-32 70
-71 -1 c-39 -1 -98 -8 -131 -15z"/>
<path d="M5878 10688 c-39 -60 -52 -179 -27 -243 16 -40 75 -112 98 -120 16
-5 44 4 146 50 104 46 177 68 184 56 4 -7 9 -198 9 -424 1 -227 4 -486 7 -577
9 -276 16 -471 20 -545 2 -38 7 -117 10 -175 3 -58 8 -121 10 -140 2 -19 7
-74 10 -122 6 -83 8 -89 40 -117 47 -41 121 -48 240 -22 103 21 243 84 301
135 l39 34 -80 -39 c-146 -70 -328 -99 -408 -65 -70 30 -74 41 -91 261 -33
422 -37 538 -42 1125 -6 807 -3 736 -37 732 -15 -2 -83 -27 -150 -57 -67 -30
-126 -55 -131 -55 -5 0 -24 11 -42 25 -70 53 -114 172 -95 255 12 52 9 59 -11
28z"/>
<path d="M13021 10654 c-17 -21 -21 -37 -17 -64 3 -19 8 -93 11 -165 3 -71 8
-168 10 -215 6 -113 20 -639 30 -1090 10 -493 16 -593 33 -620 28 -44 62 -66
140 -91 66 -21 96 -24 217 -24 156 1 218 15 223 50 3 20 0 21 -74 11 -149 -19
-353 21 -417 81 -55 52 -57 63 -67 476 -5 210 -12 463 -15 562 -2 99 -7 270
-10 380 -9 333 -27 709 -35 724 -5 10 -12 6 -29 -15z"/>
<path d="M7027 10604 c-4 -4 -7 -18 -7 -31 0 -17 6 -23 23 -24 12 -1 32 -3 45
-4 12 -1 51 -5 85 -9 73 -7 90 -10 222 -36 55 -11 123 -27 150 -36 l50 -15 27
32 c15 18 26 35 24 37 -7 6 -186 49 -261 62 -38 7 -89 16 -112 20 -56 10 -237
13 -246 4z"/>
<path d="M11375 10566 c-52 -24 -136 -86 -117 -86 6 0 13 4 16 9 9 13 105 34
151 33 128 -6 256 -109 355 -287 12 -22 25 -44 29 -50 4 -5 20 -41 36 -79 31
-76 31 -71 34 -429 l1 -188 23 3 22 3 3 303 2 302 -30 73 c-84 196 -213 354
-324 396 -73 27 -138 26 -201 -3z"/>
<path d="M16288 10560 c-21 -21 -24 -30 -15 -38 19 -15 179 -83 187 -80 5 2
-15 36 -44 75 -59 83 -83 91 -128 43z"/>
<path d="M18420 10545 c-30 -12 -76 -32 -102 -43 -59 -28 -60 -28 -48 6 l10
27 -19 -25 c-25 -31 -74 -120 -69 -125 2 -2 48 21 103 51 54 30 106 53 115 52
25 -5 146 -176 199 -283 55 -108 93 -217 112 -317 14 -74 17 -79 46 -72 37 10
33 94 -11 261 -44 165 -182 416 -261 475 -18 13 -26 12 -75 -7z"/>
<path d="M16475 10540 c3 -4 14 -10 25 -13 11 -3 18 -2 15 3 -3 4 -14 10 -25
13 -11 3 -18 2 -15 -3z"/>
<path d="M3361 10511 c-11 -11 -21 -24 -21 -28 0 -5 11 -80 25 -168 28 -181
31 -200 40 -270 4 -27 20 -138 36 -245 29 -190 40 -327 55 -695 4 -99 10 -245
13 -324 l6 -145 51 -42 c113 -91 307 -123 463 -75 70 21 142 59 156 81 8 13 8
13 -60 -12 -87 -33 -271 -33 -370 0 -77 25 -183 96 -190 127 -2 11 -11 218
-20 460 -16 458 -15 442 -90 940 -13 88 -32 212 -41 275 -21 142 -24 150 -53
121z"/>
<path d="M9161 10409 c-20 -8 -81 -50 -116 -81 -5 -5 13 1 42 13 l52 21 43
-21 c50 -25 85 -71 120 -161 103 -264 97 -627 -17 -1010 -26 -88 -27 -97 -9
-65 48 83 107 306 134 505 12 88 15 334 5 398 -33 204 -92 345 -165 395 -27
19 -53 21 -89 6z"/>
<path d="M8711 10301 c-22 -57 -23 -69 -18 -184 6 -116 11 -155 24 -217 l5
-25 15 29 c26 50 31 82 21 132 -5 27 -13 111 -16 187 l-7 138 -24 -60z"/>
<path d="M10383 10335 c-3 -9 -3 -18 -1 -21 3 -3 8 4 11 16 6 23 -1 27 -10 5z"/>
<path d="M15831 10248 c-55 -118 -96 -256 -116 -383 -21 -132 -16 -386 10
-504 116 -528 503 -953 1037 -1140 305 -106 664 -120 992 -36 240 60 498 198
686 365 l35 31 -36 -23 c-20 -13 -63 -42 -96 -65 -189 -132 -439 -228 -713
-274 -161 -27 -457 -14 -625 28 -33 8 -68 17 -78 19 -49 9 -208 71 -295 114
-465 229 -777 642 -863 1140 -17 97 -17 346 0 435 22 116 50 220 80 300 16 41
27 75 24 75 -2 0 -21 -37 -42 -82z"/>
<path d="M10324 10214 c-45 -99 -106 -282 -130 -394 -14 -66 -19 -128 -19
-275 0 -166 3 -203 24 -290 29 -125 77 -259 125 -350 116 -224 228 -337 439
-443 81 -41 100 -46 157 -47 59 0 65 -2 68 -22 3 -18 13 -23 66 -32 134 -23
259 -9 369 41 74 33 177 97 177 109 0 4 -28 -8 -62 -26 -105 -56 -168 -70
-303 -68 -99 0 -136 5 -210 27 -177 53 -346 148 -453 254 -149 148 -273 398
-333 677 -18 82 -18 399 0 490 18 95 68 265 103 349 39 96 27 96 -18 0z"/>
<path d="M8021 10246 c-12 -18 -21 -36 -21 -40 0 -4 -9 -28 -21 -53 -25 -54
-65 -182 -85 -268 -68 -289 -65 -603 7 -817 48 -143 151 -319 237 -405 96 -94
201 -171 314 -227 212 -105 402 -130 603 -82 103 25 210 66 257 98 14 10 29
18 32 18 7 0 115 77 131 93 6 6 -12 -3 -40 -19 -151 -87 -243 -120 -395 -139
-103 -14 -128 -14 -221 -1 -123 18 -205 43 -313 97 -161 80 -338 233 -423 366
-58 92 -121 232 -148 334 -27 103 -46 291 -40 391 3 35 7 101 10 148 7 124 87
430 134 519 18 34 5 24 -18 -13z"/>
<path d="M4863 10254 c-17 -9 -39 -24 -49 -35 -16 -18 -16 -19 12 -19 45 0 99
-50 121 -113 15 -44 18 -84 18 -257 0 -113 -3 -232 -7 -265 -23 -188 -58 -547
-58 -590 0 -144 96 -287 245 -364 101 -52 263 -69 401 -42 74 15 214 62 214
72 0 19 -26 19 -103 0 -95 -24 -254 -29 -332 -10 -147 35 -278 135 -337 258
-43 88 -47 180 -19 406 51 424 63 699 36 830 -13 61 -20 75 -56 108 -23 20
-44 37 -48 37 -3 0 -20 -8 -38 -16z"/>
<path d="M17291 9919 c-49 -22 -117 -77 -107 -86 1 -2 24 4 50 13 151 52 328
-48 330 -186 1 -27 4 -50 8 -50 3 0 16 21 28 46 17 35 21 57 18 100 -6 69 -43
119 -120 157 -75 38 -133 40 -207 6z"/>
<path d="M4235 9919 c-4 -6 -5 -12 -2 -15 2 -3 7 2 10 11 7 17 1 20 -8 4z"/>
<path d="M16974 9783 c-54 -107 -33 -256 47 -339 l30 -31 -40 -154 c-22 -85
-55 -210 -74 -279 -39 -142 -51 -190 -44 -190 7 0 61 81 63 95 6 41 79 346
103 430 5 17 17 62 26 102 l17 72 -29 43 c-67 101 -91 209 -63 282 18 48 -7
26 -36 -31z"/>
<path d="M4175 9809 c-4 -6 -5 -12 -2 -15 2 -3 7 2 10 11 7 17 1 20 -8 4z"/>
<path d="M18570 9736 c0 -2 9 -6 20 -9 11 -3 18 -1 14 4 -5 9 -34 13 -34 5z"/>
<path d="M18644 9712 c3 -5 -28 -16 -69 -26 -41 -10 -75 -21 -75 -25 0 -3 55
-24 121 -44 l122 -38 -6 -67 c-8 -83 -46 -236 -81 -321 -14 -35 -24 -66 -22
-69 8 -7 84 162 114 253 37 114 49 191 43 275 -1 6 -11 14 -23 19 -13 5 -47
18 -76 30 -29 12 -51 17 -48 13z"/>
<path d="M16011 9688 c-17 -11 -31 -29 -31 -39 0 -23 -6 -23 71 2 67 22 101
38 84 39 -5 1 -29 5 -52 9 -33 6 -47 4 -72 -11z"/>
<path d="M17567 9428 c-37 -20 -82 -32 -171 -47 -27 -4 -46 -15 -64 -38 l-25
-33 41 0 c75 0 163 35 222 89 59 54 58 62 -3 29z"/>
<path d="M11743 9323 c-8 -21 -22 -50 -29 -65 -8 -16 -12 -28 -9 -28 5 0 41
67 55 105 15 40 1 29 -17 -12z"/>
<path d="M11677 9185 c-24 -50 -20 -58 4 -12 11 22 19 41 17 43 -3 2 -12 -12
-21 -31z"/>
<path d="M18210 8936 c0 -1 20 -47 45 -100 l46 -97 30 21 c21 16 28 28 24 41
-3 10 -8 28 -11 39 -6 24 -134 115 -134 96z"/>
<path d="M11884 8803 c-21 -29 -23 -38 -40 -243 -4 -36 -15 -112 -25 -170 -11
-58 -26 -140 -34 -182 -17 -91 -57 -236 -91 -331 -29 -81 -30 -95 -4 -46 52
98 102 251 140 429 42 195 86 501 78 550 -3 21 -4 21 -24 -7z"/>
<path d="M17327 8559 c-24 -115 -25 -129 -12 -129 13 0 45 104 45 147 0 16 -4
34 -9 42 -6 9 -14 -11 -24 -60z"/>
<path d="M1134 8562 c-17 -12 -18 -353 0 -444 11 -60 49 -162 73 -197 1 -2 17
5 36 16 18 11 51 26 73 33 21 7 44 16 49 21 29 22 323 84 450 95 44 3 89 8
100 11 11 3 135 7 275 10 216 5 507 -5 655 -22 17 -2 66 -6 110 -10 44 -3 90
-8 102 -11 21 -6 23 -3 23 29 0 44 11 41 -255 63 -287 24 -693 21 -925 -6
-257 -29 -467 -83 -577 -146 -23 -13 -46 -24 -51 -24 -15 0 -62 106 -83 187
-15 60 -19 110 -19 240 0 164 -3 178 -36 155z"/>
<path d="M10255 8027 c-30 -53 -30 -51 -4 -207 38 -222 128 -432 266 -617 113
-151 299 -289 461 -342 101 -33 172 -42 324 -42 206 -1 331 30 456 110 83 54
86 67 5 27 -122 -60 -176 -70 -388 -71 -221 0 -285 12 -431 80 -182 85 -324
218 -452 420 -105 168 -198 451 -205 620 -1 36 -3 65 -4 65 -1 0 -14 -20 -28
-43z"/>
</g>
</svg>
